<svg width="181" height="45" viewBox="0 0 181 45" fill="none" xmlns="http://www.w3.org/2000/svg">
<path d="M75.1387 39.9917C75.1387 42.703 77.1949 43.4777 79.2948 43.4777C81.3834 43.4777 83.4491 42.4559 83.4491 40.0751C83.4491 36.2167 83.4491 32.3582 83.4491 28.4997C87.6528 28.4997 93.7458 28.4997 98.1426 28.4997L98.1426 39.9917C98.1426 42.2748 100.23 43.4777 102.297 43.4777C104.397 43.4777 106.451 42.3419 106.451 40.0751V9.77501C106.451 7.4839 104.591 5.62658 102.297 5.62658C100.003 5.62658 98.1426 7.4839 98.1426 9.77502V20.6325C95.2244 20.6325 86.5792 20.625 83.4491 20.625V9.77501C83.4491 7.4839 81.5892 5.62658 79.2948 5.62658C76.9993 5.62658 75.1384 7.48584 75.1384 9.78068L75.1387 39.9917Z" fill="#181818"/>
<path d="M111.93 9.77501C111.93 7.1432 113.495 5.61842 116.061 5.61842C118.612 5.61842 120.215 7.15282 120.215 9.77501V27.8267C120.215 31.8881 123.508 35.1805 127.569 35.1805C131.63 35.1805 134.923 31.8881 134.923 27.8267L134.934 9.77501C134.934 7.20098 136.522 5.61842 139.076 5.61842C141.628 5.61842 143.219 7.21036 143.219 9.77501V27.8267C143.219 36.4701 136.212 43.4769 127.569 43.4769C118.926 43.4769 111.919 36.4701 111.919 27.8267L111.93 9.77501Z" fill="#181818"/>
<path fill-rule="evenodd" clip-rule="evenodd" d="M58.5183 5.62659C57.4329 5.62659 56.4777 5.90562 55.6528 6.46368L55.1311 6.92004L38.799 26.4422C38.3214 27.129 37.9523 27.7086 37.6918 28.1808C37.4313 28.61 37.236 28.9964 37.1057 29.3398C36.9755 29.6403 36.8886 29.9193 36.8452 30.1769C36.8018 30.3915 36.7801 30.6062 36.7801 30.8208C36.7801 32.1945 37.1708 33.2033 37.9523 33.8472C38.7773 34.4911 40.1014 34.8131 41.9249 34.8131H54.68L54.6799 39.2082C54.6787 41.8213 56.3089 43.4765 58.6698 43.4765C61.0306 43.4765 62.8857 41.7772 62.8857 39.1171V34.8131L66.4223 34.8133C68.3099 34.8133 69.6586 33.2043 69.6586 31.5291C69.6586 29.854 68.315 28.181 66.4223 28.181L62.8857 28.1808V9.10373C62.8857 6.79651 60.6515 5.62659 58.5183 5.62659ZM54.6799 28.181H46.9282L54.68 18.0941L54.6799 28.181Z" fill="#181818"/>
<path d="M31.3003 39.9917C31.3003 42.2984 29.2812 43.4769 27.1577 43.4769C25.0371 43.4769 23.015 42.2896 23.015 39.9917L23.0039 21.2847C23.0039 17.2233 19.7115 13.9309 15.6501 13.9309C11.5887 13.9309 8.29635 17.2233 8.29635 21.2847L8.28539 39.9917C8.28539 42.2984 6.26626 43.4769 4.14269 43.4769C2.02215 43.4769 0 42.2896 0 39.9917V21.2847C0 12.6414 7.00679 5.63458 15.6501 5.63458C24.2934 5.63458 31.3002 12.6414 31.3002 21.2847L31.3003 39.9917Z" fill="#181818"/>
<path fill-rule="evenodd" clip-rule="evenodd" d="M153.836 5.64199C150.96 5.64199 150.217 6.32625 149.635 6.90791C149.053 7.48957 148.646 8.28142 148.646 10.5013V38.6417C148.646 40.2954 148.97 41.6157 149.794 42.4038L149.806 42.4144C150.663 43.1912 151.941 43.5011 153.836 43.5011H169.705C171.727 43.5011 174.602 43.6784 176.776 41.8232L176.78 41.8194C179.336 39.5934 180.189 37.9114 180.189 33.1845C180.189 28.5296 177.974 25.7491 173.965 24.0453C176.605 21.8112 177.248 19.3329 177.248 16.0621C177.248 10.1515 174.701 5.64201 168.936 5.64201C166.914 5.64199 165.357 5.64185 163.452 5.64185L153.836 5.64199ZM157.052 20.9978V12.3683L161.396 12.3683C162.542 12.3684 164.57 12.3683 165.674 12.3683C168.037 12.3684 169.705 14.3304 169.705 16.5565C169.705 18.7826 168.198 20.9979 165.674 20.9978C164.598 20.9978 163.285 20.9978 161.72 20.9978H157.052ZM156.936 37.6293V28.2475H161.72C163.123 28.2475 167.219 28.2477 168.692 28.2477C171.635 28.2477 172.952 29.5938 172.952 32.9026C172.952 36.2113 171.399 37.6293 168.692 37.6295C167.767 37.6295 163.543 37.6293 162.368 37.6293H156.936Z" fill="#181818"/>
</svg>
