<svg width="28" height="25" viewBox="0 0 28 25" fill="" xmlns="http://www.w3.org/2000/svg">
<g id="nav-license">
<path fill-rule="evenodd" clip-rule="evenodd" d="M0.8225 22.2337C1.37083 22.7987 2.03 23.0812 2.8 23.0812H8.4V23.5606C8.4 23.9693 8.53417 24.3119 8.8025 24.5884C9.07083 24.8649 9.40333 25.0032 9.8 25.0032H18.2C18.5967 25.0032 18.9292 24.8649 19.1975 24.5884C19.4658 24.3119 19.6 23.9693 19.6 23.5606V23.0812H25.2C25.97 23.0812 26.6292 22.7987 27.1775 22.2337C27.7258 21.6687 28 20.9895 28 20.1961V2.88516C28 2.09174 27.7258 1.41252 27.1775 0.847514C26.6292 0.282505 25.97 0 25.2 0H2.8C2.03 0 1.37083 0.282505 0.8225 0.847514C0.274167 1.41252 0 2.09174 0 2.88516V20.1961C0 20.9895 0.274167 21.6687 0.8225 22.2337ZM3.30478 21.4613C2.71742 21.465 2.46999 21.4666 1.99819 20.9948C1.66861 20.6652 1.66861 20.1168 1.66861 19.2764V2.88516C1.66861 2.53243 1.72967 2.20088 2.0667 1.86429C2.40372 1.5277 3.04452 1.5277 3.28516 1.5277H24.9542C25.0095 1.5277 25.0625 1.52709 25.1134 1.52649C25.5221 1.52172 25.7985 1.51849 26.1297 1.84932C26.4496 2.16879 26.44 2.4993 26.4308 2.8113C26.4293 2.86262 26.4279 2.91343 26.4279 2.96362V19.2764C26.4279 19.6682 26.4279 20.3348 25.9905 20.7716C25.5531 21.2085 25.0652 21.4606 24.3954 21.4606H3.47862C3.41741 21.4606 3.35961 21.461 3.30478 21.4613Z" fill="#181818"/>
<path d="M15.4993 7.7C15.4993 7.3134 15.8127 7 16.1993 7H22.7993C23.1859 7 23.4993 7.3134 23.4993 7.7C23.4993 8.0866 23.1859 8.4 22.7993 8.4H16.1993C15.8127 8.4 15.4993 8.0866 15.4993 7.7Z" fill="#181818"/>
<path d="M15.4993 11.1C15.4993 10.7134 15.8127 10.4 16.1993 10.4H22.7993C23.1859 10.4 23.4993 10.7134 23.4993 11.1C23.4993 11.4866 23.1859 11.8 22.7993 11.8H16.1993C15.8127 11.8 15.4993 11.4866 15.4993 11.1Z" fill="#181818"/>
<path d="M16.1993 13.8C15.8127 13.8 15.4993 14.1134 15.4993 14.5C15.4993 14.8866 15.8127 15.2 16.1993 15.2H22.7993C23.1859 15.2 23.4993 14.8866 23.4993 14.5C23.4993 14.1134 23.1859 13.8 22.7993 13.8H16.1993Z" fill="#181818"/>
<path fill-rule="evenodd" clip-rule="evenodd" d="M12.0007 11.8542C12.9213 11.0302 13.5007 9.83275 13.5007 8.5C13.5007 6.01472 11.486 4 9.00067 4C6.51539 4 4.50067 6.01472 4.50067 8.5C4.50067 9.83275 5.08005 11.0302 6.00067 11.8542V18.0925C6.00067 18.3004 6.15493 18.5047 6.37905 18.5844C6.60317 18.664 6.86767 18.6392 7.05072 18.4561C7.23377 18.2731 9.00067 16.7624 9.00067 16.7624C9.00067 16.7624 10.7488 18.2285 10.9765 18.4561C11.2041 18.6838 11.4678 18.6312 11.6304 18.5676C11.7929 18.5041 12.0007 18.3323 12.0007 18.0925V11.8542ZM12.1007 8.5C12.1007 10.2121 10.7128 11.6 9.00067 11.6C7.28859 11.6 5.90067 10.2121 5.90067 8.5C5.90067 6.78792 7.28859 5.4 9.00067 5.4C10.7128 5.4 12.1007 6.78792 12.1007 8.5Z" fill="#181818"/>
</g>
</svg>
